<mxfile host="app.diagrams.net" modified="2023-04-24T21:55:30.259Z" agent="Mozilla/5.0 (Windows NT 10.0; Win64; x64) AppleWebKit/537.36 (KHTML, like Gecko) Chrome/112.0.0.0 Safari/537.36" version="21.2.1" etag="b9y6f8Ukos_TRxJrhqIH" type="github">
  <diagram name="第 1 页" id="H-nEePXFSASS2mtx1Dio">
    <mxGraphModel>
      <root>
        <mxCell id="0" />
        <mxCell id="1" parent="0" />
      </root>
    </mxGraphModel>
  </diagram>
</mxfile>
